<?xml version="1.0" encoding="utf-8"?>
<svg viewBox="0 0 16 16" xmlns="http://www.w3.org/2000/svg">
  <path d="M 2 0 C 0.895 0 0 0.896 0 2 L 0 14 C 0 15.105 0.895 16 2 16 L 14 16 C 15.104 16 16 15.105 16 14 L 16 2 C 16 0.896 15.104 0 14 0 L 2 0 Z M 12.03 4.97 C 12.319 5.259 12.323 5.726 12.041 6.02 L 8.049 11.01 C 7.759 11.322 7.269 11.331 6.969 11.03 L 4.324 8.384 C 3.901 7.991 4.063 7.287 4.615 7.118 C 4.89 7.034 5.188 7.114 5.384 7.324 L 7.478 9.417 L 10.951 4.992 C 11.239 4.68 11.729 4.67 12.031 4.97 L 12.03 4.97 Z" style="fill: rgb(43, 198, 12); transform-origin: 0px 0px;"/>
</svg>