<?xml version="1.0" encoding="utf-8"?>
<svg width="390px" height="100px" viewBox="0 0 390 100" version="1.1" xmlns="http://www.w3.org/2000/svg">
  <title>btn_google_light_normal_ios</title>
  <desc>Created with Sketch.</desc>
  <defs>
    <rect id="path-2" x="0" y="0" width="40" height="40" rx="2"/>
  </defs>
  <g id="Google-Button" stroke="none" stroke-width="1" fill="none" fill-rule="evenodd" style="" transform="matrix(2.388547, 0, 0, 2.388547, -6.017818, -5.030779)">
    <g id="9-PATCH" transform="translate(-608.000000, -160.000000)"/>
    <g id="btn_google_light_normal" transform="translate(-1.000000, -1.000000)">
      <g id="logo_googleg_48dp" transform="matrix(1.741483, 0, 0, 1.741483, 8.433705, 8.219587)" style="">
        <path d="M17.64,9.20454545 C17.64,8.56636364 17.5827273,7.95272727 17.4763636,7.36363636 L9,7.36363636 L9,10.845 L13.8436364,10.845 C13.635,11.97 13.0009091,12.9231818 12.0477273,13.5613636 L12.0477273,15.8195455 L14.9563636,15.8195455 C16.6581818,14.2527273 17.64,11.9454545 17.64,9.20454545 L17.64,9.20454545 Z" id="Shape" fill="#4285F4"/>
        <path d="M9,18 C11.43,18 13.4672727,17.1940909 14.9563636,15.8195455 L12.0477273,13.5613636 C11.2418182,14.1013636 10.2109091,14.4204545 9,14.4204545 C6.65590909,14.4204545 4.67181818,12.8372727 3.96409091,10.71 L0.957272727,10.71 L0.957272727,13.0418182 C2.43818182,15.9831818 5.48181818,18 9,18 L9,18 Z" id="Shape" fill="#34A853"/>
        <path d="M3.96409091,10.71 C3.78409091,10.17 3.68181818,9.59318182 3.68181818,9 C3.68181818,8.40681818 3.78409091,7.83 3.96409091,7.29 L3.96409091,4.95818182 L0.957272727,4.95818182 C0.347727273,6.17318182 0,7.54772727 0,9 C0,10.4522727 0.347727273,11.8268182 0.957272727,13.0418182 L3.96409091,10.71 L3.96409091,10.71 Z" id="Shape" fill="#FBBC05"/>
        <path d="M9,3.57954545 C10.3213636,3.57954545 11.5077273,4.03363636 12.4404545,4.92545455 L15.0218182,2.34409091 C13.4631818,0.891818182 11.4259091,0 9,0 C5.48181818,0 2.43818182,2.01681818 0.957272727,4.95818182 L3.96409091,7.29 C4.67181818,5.16272727 6.65590909,3.57954545 9,3.57954545 L9,3.57954545 Z" id="Shape" fill="#EA4335"/>
        <path d="M0,0 L18,0 L18,18 L0,18 L0,0 Z" id="Shape"/>
      </g>
      <g id="handles_square"/>
    </g>
  </g>
  <path d="M 157.05 66.356 C 155.432 68.387 153.143 69.964 150.185 71.085 C 147.228 72.205 143.95 72.765 140.352 72.765 C 136.575 72.765 133.262 71.901 130.413 70.173 C 127.565 68.445 125.367 65.937 123.818 62.649 C 122.27 59.36 121.476 55.496 121.436 51.056 L 121.436 47.946 C 121.436 43.38 122.17 39.427 123.639 36.086 C 125.107 32.745 127.226 30.189 129.994 28.42 C 132.762 26.65 136.005 25.765 139.722 25.765 C 144.898 25.765 148.946 27.059 151.864 29.645 C 154.782 32.232 156.51 35.997 157.05 40.94 L 148.297 40.94 C 147.897 38.321 147.012 36.405 145.643 35.191 C 144.274 33.976 142.391 33.369 139.992 33.369 C 136.934 33.369 134.606 34.573 133.007 36.981 C 131.409 39.39 130.599 42.971 130.579 47.726 L 130.579 50.648 C 130.579 55.445 131.449 59.068 133.187 61.518 C 134.926 63.969 137.474 65.194 140.831 65.194 C 144.209 65.194 146.618 64.44 148.057 62.931 L 148.057 55.046 L 139.872 55.046 L 139.872 48.103 L 157.05 48.103 L 157.05 66.356 Z M 200.188 50.301 C 200.188 54.805 199.429 58.753 197.909 62.146 C 196.391 65.54 194.217 68.157 191.389 70.001 C 188.562 71.844 185.319 72.765 181.661 72.765 C 178.044 72.765 174.816 71.854 171.978 70.032 C 169.14 68.209 166.941 65.607 165.382 62.224 C 163.823 58.842 163.033 54.952 163.014 50.554 L 163.014 48.292 C 163.014 43.789 163.788 39.824 165.338 36.401 C 166.886 32.976 169.075 30.347 171.903 28.514 C 174.731 26.682 177.963 25.765 181.601 25.765 C 185.238 25.765 188.472 26.682 191.3 28.514 C 194.127 30.347 196.315 32.976 197.865 36.401 C 199.413 39.824 200.188 43.778 200.188 48.26 L 200.188 50.301 Z M 191.074 48.229 C 191.074 43.432 190.255 39.788 188.616 37.295 C 186.977 34.803 184.639 33.556 181.601 33.556 C 178.583 33.556 176.255 34.787 174.616 37.249 C 172.977 39.709 172.147 43.317 172.127 48.071 L 172.127 50.301 C 172.127 54.973 172.946 58.597 174.585 61.173 C 176.224 63.748 178.583 65.037 181.661 65.037 C 184.679 65.037 186.998 63.795 188.616 61.315 C 190.234 58.832 191.054 55.214 191.074 50.46 L 191.074 48.229 Z M 242.578 50.301 C 242.578 54.805 241.818 58.753 240.299 62.146 C 238.779 65.54 236.606 68.157 233.778 70.001 C 230.95 71.844 227.708 72.765 224.05 72.765 C 220.433 72.765 217.205 71.854 214.367 70.032 C 211.529 68.209 209.33 65.607 207.772 62.224 C 206.213 58.842 205.423 54.952 205.404 50.554 L 205.404 48.292 C 205.404 43.789 206.178 39.824 207.727 36.401 C 209.276 32.976 211.464 30.347 214.292 28.514 C 217.119 26.682 220.353 25.765 223.991 25.765 C 227.628 25.765 230.861 26.682 233.688 28.514 C 236.516 30.347 238.705 32.976 240.254 36.401 C 241.803 39.824 242.578 43.778 242.578 48.26 L 242.578 50.301 Z M 233.464 48.229 C 233.464 43.432 232.645 39.788 231.006 37.295 C 229.367 34.803 227.029 33.556 223.991 33.556 C 220.972 33.556 218.644 34.787 217.005 37.249 C 215.366 39.709 214.537 43.317 214.517 48.071 L 214.517 50.301 C 214.517 54.973 215.336 58.597 216.975 61.173 C 218.614 63.748 220.972 65.037 224.05 65.037 C 227.068 65.037 229.387 63.795 231.006 61.315 C 232.624 58.832 233.444 55.214 233.464 50.46 L 233.464 48.229 Z M 283.648 66.356 C 282.029 68.387 279.74 69.964 276.783 71.085 C 273.825 72.205 270.547 72.765 266.949 72.765 C 263.171 72.765 259.86 71.901 257.011 70.173 C 254.163 68.445 251.964 65.937 250.416 62.649 C 248.867 59.36 248.073 55.496 248.032 51.056 L 248.032 47.946 C 248.032 43.38 248.767 39.427 250.236 36.086 C 251.705 32.745 253.824 30.189 256.592 28.42 C 259.36 26.65 262.602 25.765 266.32 25.765 C 271.496 25.765 275.544 27.059 278.461 29.645 C 281.379 32.232 283.108 35.997 283.648 40.94 L 274.894 40.94 C 274.494 38.321 273.61 36.405 272.241 35.191 C 270.872 33.976 268.988 33.369 266.59 33.369 C 263.532 33.369 261.204 34.573 259.604 36.981 C 258.005 39.39 257.196 42.971 257.176 47.726 L 257.176 50.648 C 257.176 55.445 258.045 59.068 259.784 61.518 C 261.523 63.969 264.072 65.194 267.429 65.194 C 270.807 65.194 273.214 64.44 274.654 62.931 L 274.654 55.046 L 266.47 55.046 L 266.47 48.103 L 283.648 48.103 L 283.648 66.356 Z M 299.924 64.566 L 319.021 64.566 L 319.021 72.137 L 290.93 72.137 L 290.93 26.394 L 299.924 26.394 L 299.924 64.566 Z M 350.438 52.313 L 333.169 52.313 L 333.169 64.566 L 353.436 64.566 L 353.436 72.137 L 324.176 72.137 L 324.176 26.394 L 353.376 26.394 L 353.376 34.028 L 333.169 34.028 L 333.169 44.93 L 350.438 44.93 L 350.438 52.313 Z" style="fill: rgb(51, 51, 51); white-space: pre; transform-box: fill-box; transform-origin: 50% 50%;"/>
</svg>