<svg id="fbe40104-bbc4-4729-8ec9-01a3b5f4e661" data-name="Layer 1" xmlns="http://www.w3.org/2000/svg" viewBox="0 0 28 28"><path d="M4.569,0H23.431A4.569,4.569,0,0,1,28,4.569V23.431A4.569,4.569,0,0,1,23.431,28H4.568A4.568,4.568,0,0,1,0,23.432V4.569A4.569,4.569,0,0,1,4.569,0Z" style="fill:#005ff9"/><path d="M16.633,14A2.633,2.633,0,1,1,14,11.367,2.636,2.636,0,0,1,16.633,14ZM14,5.246a8.754,8.754,0,1,0,4.931,15.985l.025-.017-1.179-1.371-.02.013A6.969,6.969,0,1,1,20.8,15.5a1.3,1.3,0,0,1-1.327,1.143,1.121,1.121,0,0,1-1.04-1.212V14a4.435,4.435,0,1,0-1.291,3.121,2.849,2.849,0,0,0,2.187,1.307c.078.006.157.01.236.01a2.952,2.952,0,0,0,1.776-.6,3.3,3.3,0,0,0,1.133-1.667c.035-.111.1-.367.1-.369v-.009A7.714,7.714,0,0,0,22.754,14,8.764,8.764,0,0,0,14,5.246" style="fill:#ff9e00"/></svg>